<svg width="26" height="27" viewBox="0 0 26 27" fill="none" xmlns="http://www.w3.org/2000/svg">
<path d="M23.675 11.3497L13.675 2.26218C13.4907 2.09353 13.2499 2 13 2C12.7501 2 12.5093 2.09353 12.325 2.26218L2.325 11.3497C2.22437 11.4447 2.14378 11.5589 2.08796 11.6856C2.03215 11.8122 2.00224 11.9488 2 12.0872V23.6497C2 23.9149 2.10536 24.1693 2.29289 24.3568C2.48043 24.5443 2.73478 24.6497 3 24.6497H23C23.2652 24.6497 23.5196 24.5443 23.7071 24.3568C23.8946 24.1693 24 23.9149 24 23.6497V12.0872C23.9978 11.9488 23.9679 11.8122 23.912 11.6856C23.8562 11.5589 23.7756 11.4447 23.675 11.3497V11.3497Z" stroke="#DF9190" stroke-width="3" stroke-linecap="round" stroke-linejoin="round"/>
</svg>
