<svg width="159" height="114" viewBox="0 0 159 114" fill="none" xmlns="http://www.w3.org/2000/svg">
<g filter="url(#filter0_iii_592_2)">
<path d="M101.186 40.4C100.4 39.6007 99.4233 39.0159 98.3478 38.7013C97.2723 38.3867 96.1341 38.3528 95.0417 38.6027C93.9394 38.8464 92.9167 39.3651 92.0689 40.1105C91.2212 40.856 90.5759 41.8039 90.1933 42.866L67.6647 104.767C67.3134 105.775 67.2067 106.851 67.3534 107.908C67.5001 108.965 67.8959 109.972 68.5084 110.845C69.1208 111.719 69.9322 112.435 70.8756 112.933C71.819 113.431 72.8674 113.698 73.9343 113.712C74.716 113.713 75.4926 113.586 76.2331 113.336L138.134 90.807C139.196 90.4244 140.144 89.7791 140.89 88.9314C141.635 88.0836 142.154 87.0609 142.398 85.9586C142.648 84.8662 142.614 83.728 142.299 82.6525C141.984 81.577 141.4 80.5999 140.6 79.8144L101.186 40.4ZM81.6667 85.7914L89.6917 63.7227L117.278 91.3086L95.2089 99.3336L81.6667 85.7914ZM121.875 49.0937C121.937 46.8323 122.478 44.6098 123.464 42.5734C125.679 38.143 129.858 35.7187 135.25 35.7187C138.051 35.7187 139.848 34.7574 140.976 32.7094C141.552 31.5496 141.879 30.2827 141.938 28.9895C141.938 28.5523 142.025 28.1195 142.193 27.7161C142.362 27.3128 142.609 26.9469 142.92 26.6397C143.231 26.3325 143.6 26.0902 144.005 25.9267C144.411 25.7633 144.844 25.682 145.282 25.6875C146.168 25.6875 147.019 26.0398 147.646 26.6669C148.273 27.2939 148.625 28.1444 148.625 29.0312C148.625 34.423 145.073 42.4062 135.25 42.4062C132.45 42.4062 130.653 43.3676 129.524 45.4156C128.949 46.5754 128.621 47.8423 128.563 49.1355C128.563 49.5727 128.476 50.0055 128.308 50.4089C128.139 50.8122 127.892 51.1781 127.581 51.4853C127.27 51.7924 126.901 52.0348 126.495 52.1983C126.09 52.3617 125.656 52.443 125.219 52.4375C124.332 52.4375 123.482 52.0852 122.855 51.4581C122.228 50.8311 121.875 49.9806 121.875 49.0937ZM111.844 35.7187V25.6875C111.844 24.8007 112.196 23.9502 112.823 23.3231C113.45 22.696 114.301 22.3438 115.188 22.3438C116.075 22.3438 116.925 22.696 117.552 23.3231C118.179 23.9502 118.532 24.8007 118.532 25.6875V35.7187C118.532 36.6056 118.179 37.4561 117.552 38.0831C116.925 38.7102 116.075 39.0625 115.188 39.0625C114.301 39.0625 113.45 38.7102 112.823 38.0831C112.196 37.4561 111.844 36.6056 111.844 35.7187ZM154.351 70.1176C154.979 70.7515 155.332 71.6077 155.332 72.5C155.332 73.3923 154.979 74.2485 154.351 74.8824C153.712 75.5004 152.858 75.8459 151.969 75.8459C151.08 75.8459 150.226 75.5004 149.587 74.8824L142.899 68.1949C142.366 67.5452 142.093 66.7205 142.135 65.881C142.176 65.0415 142.528 64.2474 143.122 63.6531C143.716 63.0588 144.511 62.7068 145.35 62.6656C146.189 62.6244 147.014 62.8969 147.664 63.4301L154.351 70.1176ZM156.358 52.2703L146.326 55.6141C145.991 55.7302 145.637 55.7868 145.282 55.7812C144.486 55.7814 143.717 55.4982 143.112 54.9824C142.507 54.4665 142.105 53.7518 141.979 52.9666C141.853 52.1814 142.011 51.377 142.425 50.6979C142.839 50.0187 143.481 49.5093 144.237 49.2609L154.268 45.9172C154.685 45.78 155.125 45.7262 155.563 45.7591C156.001 45.792 156.428 45.9108 156.82 46.1087C157.212 46.3067 157.561 46.5799 157.848 46.9127C158.134 47.2456 158.352 47.6317 158.489 48.0488C158.627 48.466 158.68 48.9061 158.647 49.344C158.615 49.7819 158.496 50.209 158.298 50.601C158.1 50.993 157.827 51.3422 157.494 51.6286C157.161 51.915 156.775 52.1331 156.358 52.2703Z" fill="#92D2FF"/>
</g>
<g filter="url(#filter1_iii_592_2)">
<path d="M17.6867 46.2871C17.0039 46.808 16.4659 47.495 16.1238 48.2827C15.7818 49.0705 15.6472 49.9327 15.7329 50.7872C15.8127 51.6486 16.1094 52.4758 16.5952 53.1917C17.081 53.9076 17.7401 54.4888 18.5111 54.8813L63.4254 77.9283C64.1579 78.2918 64.9663 78.4758 65.7839 78.4653C66.6015 78.4548 67.4049 78.25 68.1278 77.8679C68.8507 77.4857 69.4723 76.9372 69.9414 76.2675C70.4106 75.5977 70.7137 74.8261 70.8259 74.0161C70.9015 73.4219 70.8791 72.8192 70.7596 72.2322L59.5466 23.011C59.3572 22.1668 58.9571 21.3843 58.3838 20.7365C57.8104 20.0886 57.0824 19.5964 56.2675 19.3058C55.4608 19.0113 54.5921 18.9284 53.7442 19.0648C52.8963 19.2012 52.0975 19.5524 51.4239 20.0851L17.6867 46.2871ZM50.3352 65.4678L34.3219 57.2563L57.9343 38.9177L61.9268 56.4652L50.3352 65.4678ZM26.2749 31.3865C24.5612 31.1236 22.9231 30.4995 21.4688 29.5556C18.3118 27.4477 16.868 24.0378 17.3834 19.9381C17.6511 17.8087 17.0919 16.3503 15.6425 15.2964C14.8157 14.7481 13.8837 14.3781 12.9059 14.2099C12.5735 14.1681 12.2527 14.0607 11.9621 13.894C11.6715 13.7273 11.4169 13.5046 11.2131 13.2387C11.0093 12.9728 10.8603 12.6691 10.7747 12.3452C10.6892 12.0213 10.6688 11.6836 10.7148 11.3517C10.7996 10.6774 11.1487 10.0644 11.6855 9.64754C12.2222 9.23067 12.9026 9.04411 13.5769 9.12887C17.6767 9.64427 23.4073 13.1088 22.4684 20.5773C22.2007 22.7066 22.7599 24.1651 24.2093 25.219C25.0361 25.7673 25.9681 26.1373 26.9459 26.3055C27.2783 26.3473 27.5991 26.4546 27.8897 26.6214C28.1803 26.7881 28.4349 27.0108 28.6387 27.2767C28.8425 27.5426 28.9916 27.8463 29.0771 28.1702C29.1626 28.4941 29.183 28.8318 29.137 29.1636C29.0522 29.838 28.7031 30.451 28.1663 30.8678C27.6296 31.2847 26.9492 31.4713 26.2749 31.3865ZM15.1461 37.7355L7.51859 36.7766C6.84428 36.6918 6.23126 36.3427 5.8144 35.8059C5.39753 35.2692 5.21096 34.5888 5.29573 33.9145C5.38049 33.2402 5.72966 32.6272 6.26641 32.2103C6.80316 31.7934 7.48353 31.6069 8.15784 31.6916L15.7853 32.6505C16.4596 32.7353 17.0726 33.0844 17.4895 33.6212C17.9064 34.1579 18.0929 34.8383 18.0082 35.5126C17.9234 36.1869 17.5742 36.7999 17.0375 37.2168C16.5007 37.6337 15.8204 37.8203 15.1461 37.7355ZM45.3651 8.70222C45.9072 8.28539 46.5919 8.09939 47.2703 8.18468C47.9488 8.26997 48.5661 8.61965 48.9881 9.15768C49.397 9.70272 49.578 10.3853 49.493 11.0613C49.408 11.7373 49.0637 12.3538 48.5327 12.7807L42.8085 17.2265C42.2635 17.5698 41.6103 17.6981 40.976 17.5866C40.3416 17.475 39.7714 17.1314 39.3764 16.6227C38.9813 16.114 38.7895 15.4765 38.8384 14.8343C38.8873 14.1921 39.1734 13.591 39.6409 13.148L45.3651 8.70222ZM31.9863 5.47074L33.57 13.4178C33.6262 13.6844 33.6354 13.9586 33.5972 14.2283C33.5213 14.833 33.2324 15.3909 32.7824 15.8018C32.3323 16.2127 31.7505 16.4498 31.1414 16.4704C30.5323 16.491 29.9358 16.2939 29.4589 15.9144C28.9821 15.5348 28.6561 14.9978 28.5395 14.3996L26.9559 6.45251C26.8914 6.12221 26.8926 5.78244 26.9595 5.45261C27.0263 5.12278 27.1575 4.80933 27.3454 4.53019C27.5334 4.25104 27.7745 4.01166 28.055 3.8257C28.3355 3.63974 28.6499 3.51084 28.9802 3.44638C29.3105 3.38192 29.6503 3.38315 29.9801 3.44999C30.31 3.51684 30.6234 3.64799 30.9025 3.83597C31.1817 4.02395 31.4211 4.26507 31.607 4.54557C31.793 4.82606 31.9219 5.14043 31.9863 5.47074Z" fill="#FFB84E"/>
</g>
<defs>
<filter id="filter0_iii_592_2" x="67.2895" y="22.3438" width="96.3673" height="95.3679" filterUnits="userSpaceOnUse" color-interpolation-filters="sRGB">
<feFlood flood-opacity="0" result="BackgroundImageFix"/>
<feBlend mode="normal" in="SourceGraphic" in2="BackgroundImageFix" result="shape"/>
<feColorMatrix in="SourceAlpha" type="matrix" values="0 0 0 0 0 0 0 0 0 0 0 0 0 0 0 0 0 0 127 0" result="hardAlpha"/>
<feOffset dx="5" dy="4"/>
<feGaussianBlur stdDeviation="13"/>
<feComposite in2="hardAlpha" operator="arithmetic" k2="-1" k3="1"/>
<feColorMatrix type="matrix" values="0 0 0 0 0.991667 0 0 0 0 0.636319 0 0 0 0 0.891569 0 0 0 1 0"/>
<feBlend mode="normal" in2="shape" result="effect1_innerShadow_592_2"/>
<feColorMatrix in="SourceAlpha" type="matrix" values="0 0 0 0 0 0 0 0 0 0 0 0 0 0 0 0 0 0 127 0" result="hardAlpha"/>
<feOffset dy="4"/>
<feGaussianBlur stdDeviation="2"/>
<feComposite in2="hardAlpha" operator="arithmetic" k2="-1" k3="1"/>
<feColorMatrix type="matrix" values="0 0 0 0 1 0 0 0 0 0.984515 0 0 0 0 0.654167 0 0 0 1 0"/>
<feBlend mode="normal" in2="effect1_innerShadow_592_2" result="effect2_innerShadow_592_2"/>
<feColorMatrix in="SourceAlpha" type="matrix" values="0 0 0 0 0 0 0 0 0 0 0 0 0 0 0 0 0 0 127 0" result="hardAlpha"/>
<feOffset dx="3" dy="2"/>
<feGaussianBlur stdDeviation="1.5"/>
<feComposite in2="hardAlpha" operator="arithmetic" k2="-1" k3="1"/>
<feColorMatrix type="matrix" values="0 0 0 0 0.304415 0 0 0 0 0.304415 0 0 0 0 0.304415 0 0 0 0.25 0"/>
<feBlend mode="normal" in2="effect2_innerShadow_592_2" result="effect3_innerShadow_592_2"/>
</filter>
<filter id="filter1_iii_592_2" x="5.2757" y="3.39893" width="70.594" height="79.0668" filterUnits="userSpaceOnUse" color-interpolation-filters="sRGB">
<feFlood flood-opacity="0" result="BackgroundImageFix"/>
<feBlend mode="normal" in="SourceGraphic" in2="BackgroundImageFix" result="shape"/>
<feColorMatrix in="SourceAlpha" type="matrix" values="0 0 0 0 0 0 0 0 0 0 0 0 0 0 0 0 0 0 127 0" result="hardAlpha"/>
<feOffset dx="5" dy="4"/>
<feGaussianBlur stdDeviation="13"/>
<feComposite in2="hardAlpha" operator="arithmetic" k2="-1" k3="1"/>
<feColorMatrix type="matrix" values="0 0 0 0 0.991667 0 0 0 0 0.636319 0 0 0 0 0.891569 0 0 0 1 0"/>
<feBlend mode="normal" in2="shape" result="effect1_innerShadow_592_2"/>
<feColorMatrix in="SourceAlpha" type="matrix" values="0 0 0 0 0 0 0 0 0 0 0 0 0 0 0 0 0 0 127 0" result="hardAlpha"/>
<feOffset dy="4"/>
<feGaussianBlur stdDeviation="2"/>
<feComposite in2="hardAlpha" operator="arithmetic" k2="-1" k3="1"/>
<feColorMatrix type="matrix" values="0 0 0 0 1 0 0 0 0 0.984515 0 0 0 0 0.654167 0 0 0 1 0"/>
<feBlend mode="normal" in2="effect1_innerShadow_592_2" result="effect2_innerShadow_592_2"/>
<feColorMatrix in="SourceAlpha" type="matrix" values="0 0 0 0 0 0 0 0 0 0 0 0 0 0 0 0 0 0 127 0" result="hardAlpha"/>
<feOffset dx="3" dy="2"/>
<feGaussianBlur stdDeviation="1.5"/>
<feComposite in2="hardAlpha" operator="arithmetic" k2="-1" k3="1"/>
<feColorMatrix type="matrix" values="0 0 0 0 0.304415 0 0 0 0 0.304415 0 0 0 0 0.304415 0 0 0 0.25 0"/>
<feBlend mode="normal" in2="effect2_innerShadow_592_2" result="effect3_innerShadow_592_2"/>
</filter>
</defs>
</svg>
