<svg width="120" height="115" viewBox="0 0 120 115" fill="none" xmlns="http://www.w3.org/2000/svg">
<g filter="url(#filter0_i_225_640)">
<g filter="url(#filter1_d_225_640)">
<path d="M97.344 32.8647H81.2396C83.5581 29.9368 84.6774 26.2373 84.3708 22.5152C84.0642 18.7932 82.3546 15.3267 79.5883 12.8177C76.8219 10.3086 73.2055 8.9446 69.4713 9.00172C65.737 9.05885 62.164 10.5329 59.4757 13.1253C58.3913 14.2231 57.5041 15.4994 56.853 16.8983C56.2019 15.4994 55.3147 14.2231 54.2303 13.1253C51.542 10.5329 47.969 9.05885 44.2347 9.00172C40.5005 8.9446 36.8841 10.3086 34.1177 12.8177C31.3514 15.3267 29.6418 18.7932 29.3352 22.5152C29.0286 26.2373 30.1479 29.9368 32.4664 32.8647H16.362C14.4095 32.8647 12.5369 33.6403 11.1563 35.021C9.77564 36.4016 9 38.2742 9 40.2267V54.9507C9 56.9032 9.77564 58.7758 11.1563 60.1564C12.5369 61.537 14.4095 62.3127 16.362 62.3127V91.7607C16.362 93.7132 17.1376 95.5858 18.5183 96.9664C19.8989 98.347 21.7715 99.1227 23.724 99.1227H89.982C91.9345 99.1227 93.8071 98.347 95.1877 96.9664C96.5684 95.5858 97.344 93.7132 97.344 91.7607V62.3127C99.2965 62.3127 101.169 61.537 102.55 60.1564C103.93 58.7758 104.706 56.9032 104.706 54.9507V40.2267C104.706 38.2742 103.93 36.4016 102.55 35.021C101.169 33.6403 99.2965 32.8647 97.344 32.8647ZM64.6751 18.3247C65.3448 17.5857 66.1576 16.9904 67.0642 16.575C67.9709 16.1596 68.9525 15.9327 69.9495 15.9082C70.9465 15.8836 71.9381 16.0619 72.8641 16.4322C73.7901 16.8025 74.6312 17.357 75.3364 18.0622C76.0416 18.7674 76.5962 19.6086 76.9665 20.5346C77.3368 21.4606 77.515 22.4522 77.4905 23.4492C77.4659 24.4462 77.2391 25.4278 76.8237 26.3344C76.4083 27.2411 75.813 28.0539 75.074 28.7236C72.8193 31.0242 66.2395 32.2665 60.672 32.7266C61.1322 27.1591 62.3745 20.5794 64.6751 18.3247ZM38.632 18.3247C40.018 16.9591 41.8857 16.1935 43.8315 16.1935C45.7772 16.1935 47.6449 16.9591 49.0309 18.3247C51.3315 20.5794 52.5738 27.1591 53.034 32.7266C47.4664 32.2665 40.8867 31.0242 38.632 28.7236C37.2664 27.3376 36.5009 25.4699 36.5009 23.5241C36.5009 21.5784 37.2664 19.7107 38.632 18.3247ZM97.344 54.9507H60.534V88.0797C60.534 89.0559 60.1462 89.9922 59.4559 90.6825C58.7655 91.3729 57.8293 91.7607 56.853 91.7607C55.8767 91.7607 54.9405 91.3729 54.2501 90.6825C53.5598 89.9922 53.172 89.0559 53.172 88.0797V54.9507H16.362V40.2267H53.172V54.9507H60.534V40.2267H97.344V54.9507Z" fill="#FFB84E"/>
</g>
</g>
<defs>
<filter id="filter0_i_225_640" x="9" y="9" width="105.706" height="95.1226" filterUnits="userSpaceOnUse" color-interpolation-filters="sRGB">
<feFlood flood-opacity="0" result="BackgroundImageFix"/>
<feBlend mode="normal" in="SourceGraphic" in2="BackgroundImageFix" result="shape"/>
<feColorMatrix in="SourceAlpha" type="matrix" values="0 0 0 0 0 0 0 0 0 0 0 0 0 0 0 0 0 0 127 0" result="hardAlpha"/>
<feOffset dx="10" dy="5"/>
<feGaussianBlur stdDeviation="8.5"/>
<feComposite in2="hardAlpha" operator="arithmetic" k2="-1" k3="1"/>
<feColorMatrix type="matrix" values="0 0 0 0 1 0 0 0 0 0.984515 0 0 0 0 0.654167 0 0 0 1 0"/>
<feBlend mode="normal" in2="shape" result="effect1_innerShadow_225_640"/>
</filter>
<filter id="filter1_d_225_640" x="0" y="0" width="119.706" height="114.123" filterUnits="userSpaceOnUse" color-interpolation-filters="sRGB">
<feFlood flood-opacity="0" result="BackgroundImageFix"/>
<feColorMatrix in="SourceAlpha" type="matrix" values="0 0 0 0 0 0 0 0 0 0 0 0 0 0 0 0 0 0 127 0" result="hardAlpha"/>
<feOffset dx="3" dy="3"/>
<feGaussianBlur stdDeviation="6"/>
<feComposite in2="hardAlpha" operator="out"/>
<feColorMatrix type="matrix" values="0 0 0 0 0.671129 0 0 0 0 0.671129 0 0 0 0 0.671129 0 0 0 0.25 0"/>
<feBlend mode="normal" in2="BackgroundImageFix" result="effect1_dropShadow_225_640"/>
<feBlend mode="normal" in="SourceGraphic" in2="effect1_dropShadow_225_640" result="shape"/>
</filter>
</defs>
</svg>
