<svg width="46" height="35" viewBox="0 0 46 35" fill="none" xmlns="http://www.w3.org/2000/svg">
<path d="M4.65421 11.1721C4.74766 10.5894 4.81424 10.0012 4.9442 9.42688C5.02115 9.08087 4.95904 8.85438 4.64164 8.70091C4.58247 8.66773 4.52703 8.62827 4.47626 8.58321C4.02826 8.22899 3.87088 7.81754 4.01159 7.3336C4.06882 7.09844 4.20397 6.88967 4.39488 6.74153C4.5858 6.59338 4.82115 6.51465 5.06236 6.51824C5.85462 6.48068 6.64685 6.47478 7.43864 6.46374C9.00441 6.44261 10.55 6.2169 12.0943 5.98339C12.5858 5.90899 13.0836 5.866 13.5788 5.82385C13.9424 5.79476 14.3075 5.85592 14.6418 6.00194C15.528 6.37832 15.6918 7.3239 14.9692 7.97409C14.5378 8.36584 14.0013 8.55583 13.4522 8.70584C11.6946 9.18371 9.91315 9.47162 8.08482 9.39873C7.47518 9.37566 7.46519 9.38292 7.48873 9.96791C7.58491 11.965 7.46698 13.9595 7.42322 15.9557C7.39502 17.2174 7.38764 17.2162 8.6408 17.0196C10.4307 16.7343 12.2232 16.4874 14.0296 16.3428C14.5043 16.2924 14.9841 16.3392 15.4399 16.4803C16.4582 16.8197 16.714 17.9319 15.966 18.7085C15.6617 19.032 15.2572 19.1938 14.8446 19.3188C14.2977 19.4639 13.7419 19.5727 13.1808 19.6446C11.3671 19.937 9.55664 20.23 7.74948 20.5235C7.32844 20.6056 6.8996 20.64 6.471 20.6261C5.17654 20.5452 4.37455 19.7936 4.24561 18.4965C4.17652 17.5911 4.17555 16.6818 4.24271 15.7761C4.30163 14.2355 4.43897 12.6988 4.65421 11.1721Z" fill="#725641"/>
<path d="M29.0697 27.2374C29.1992 26.4301 29.3517 25.6365 29.7087 24.8821C30.1145 24.0279 30.4579 23.8069 31.3935 23.8747C31.6542 23.8937 31.882 23.8036 32.122 23.7471C34.536 23.1896 36.9748 22.8868 39.4549 23.082C40.1315 23.136 40.7952 23.2627 41.4093 23.5967C42.5451 24.2183 43.0011 25.1284 42.785 26.4208C42.6405 27.322 42.2897 28.1635 41.9898 29.0183C41.791 29.5967 41.5457 30.1588 41.3077 30.7222C40.8382 31.8397 40.0115 32.4301 38.7852 32.4361C37.474 32.4436 36.1626 32.4523 34.8522 32.4865C34.0387 32.5068 33.2281 32.5958 32.4132 32.5702C31.9596 32.5739 31.5084 32.5045 31.0768 32.3648C29.766 31.8823 29.002 30.9646 28.899 29.5374C28.8654 28.7668 28.9227 27.9948 29.0697 27.2374ZM32.1106 27.3199C32.0973 27.7724 32.0701 28.2251 32.0731 28.6789C32.0777 29.2799 32.1737 29.3814 32.7919 29.3982C33.5372 29.4177 34.2832 29.4006 35.0284 29.4125C36.0451 29.4312 37.0619 29.4575 38.0787 29.4914C38.3988 29.5022 38.6669 29.4591 38.7916 29.1144C39.0939 28.2841 39.3996 27.4556 39.696 26.6231C39.8085 26.3069 39.6589 26.1461 39.3447 26.1299C38.9377 26.1102 38.5309 26.0817 38.1251 26.0939C36.2229 26.151 34.3655 26.5976 32.4843 26.8468C32.18 26.8866 32.1328 27.0791 32.1106 27.3199Z" fill="#725641"/>
<path d="M18.4275 8.96295C18.4667 8.67165 18.4839 8.37557 18.6227 8.10787C19.0216 7.3285 19.9135 7.24363 20.4481 7.93969C20.6767 8.23721 20.7578 8.58957 20.8174 8.94988C21.0137 10.1653 20.9963 11.3908 20.9966 12.6166C20.9969 13.0244 20.9795 13.4318 20.977 13.8404C20.9741 14.4098 21.029 14.4604 21.6162 14.3482C22.573 14.166 23.5367 14.0433 24.5048 13.9478C25.3607 13.8537 26.2241 13.8521 27.0801 13.943C27.6658 14.0129 27.8127 14.1516 27.9494 14.7155C28.1732 15.6809 27.7568 16.4751 26.819 16.83C26.1914 17.0687 25.5314 17.0527 24.8754 17.059C23.7453 17.0702 22.6152 17.0662 21.4846 17.0812C20.9333 17.0877 20.9119 17.1033 20.876 17.6496C20.7677 19.324 20.672 20.9991 20.575 22.674C20.5275 23.4892 20.4352 24.3013 20.2985 25.1064C20.2366 25.4887 20.0881 25.8517 19.8645 26.1676C19.2817 26.9846 18.1815 26.9436 17.672 26.0756C17.4369 25.677 17.3624 25.2282 17.3298 24.7709C17.248 23.6359 17.3339 22.5024 17.4118 21.3715C17.6885 17.3638 18.0055 13.3626 18.3626 9.36787C18.3688 9.23464 18.4052 9.10244 18.4275 8.96295Z" fill="#725641"/>
<path d="M38.3958 5.63782C39.7861 5.85318 40.7319 6.30623 41.5218 7.06225C42.5952 8.08911 42.8981 9.36344 42.4467 10.7384C41.7014 13.0247 40.2299 14.7084 38.0307 15.7283C36.6816 16.3502 35.3964 16.2669 34.1914 15.376C33.2885 14.7107 32.4965 13.9519 32.0219 12.9058C31.2773 11.2529 31.6235 9.47998 32.9489 8.24268C33.1627 8.04271 33.3528 7.81741 33.5561 7.60436C34.9572 6.1158 36.6931 5.53696 38.3958 5.63782ZM37.8629 8.96111C36.9383 8.86348 35.8646 9.13701 34.789 9.39124C34.6999 9.41047 34.618 9.45437 34.5525 9.51795C34.4869 9.58153 34.4405 9.66224 34.4183 9.75092C34.1545 10.6798 34.0806 11.2353 34.8664 12.0565C35.1272 12.3062 35.4143 12.5267 35.7226 12.7142C36.0645 12.9425 36.3882 12.9311 36.7402 12.7508C37.6572 12.2958 38.4118 11.5676 38.9007 10.6661C39.4858 9.56708 39.2886 9.17583 37.8629 8.96111Z" fill="#725641"/>
<path d="M31.5763 20.9802C30.8614 20.8655 30.1444 20.7645 29.433 20.6364C29.0499 20.5782 28.6911 20.4126 28.3977 20.1589C27.7878 19.6027 27.9483 18.7041 28.7219 18.4052C28.9571 18.3221 29.2037 18.2762 29.4529 18.2692C30.7643 18.1895 32.0758 18.2276 33.3866 18.2378C35.6728 18.2575 37.9522 18.0988 40.2282 17.9219C40.7918 17.8818 41.3571 17.8748 41.9214 17.9009C42.1702 17.9152 42.4146 17.9724 42.6439 18.07C43.7105 18.5019 43.9088 19.7442 43.0153 20.4759C42.6 20.8145 42.103 20.9627 41.5823 21.054C40.3522 21.2644 39.1088 21.298 37.8668 21.3305C36.8528 21.3579 35.8315 21.3283 34.8144 21.3045C33.7275 21.2745 32.6504 21.1208 31.5763 20.9802Z" fill="#725641"/>
</svg>
