<svg width="50" height="31" viewBox="0 0 50 31" fill="none" xmlns="http://www.w3.org/2000/svg">
<path d="M7.23478 8.99235C10.1396 8.44199 12.0939 9.41048 13.088 11.4432C13.5072 12.3026 13.8432 13.1936 13.8328 14.1738C13.8144 15.8142 13.1917 17.2153 12.1075 18.4155C11.1409 19.4871 10.0174 20.3515 8.66264 20.888C6.21583 21.8541 3.34332 20.6425 2.31062 18.2246C1.48433 16.2896 1.61357 14.4114 2.67559 12.6206C3.86693 10.6043 5.65204 9.388 7.23478 8.99235ZM7.84487 12.1977L7.85122 12.2359C7.56234 12.2839 7.27447 12.3456 6.98334 12.3799C6.71145 12.4044 6.45819 12.5286 6.27194 12.7286C5.64714 13.3583 5.20348 14.1456 4.98774 15.0075C4.89006 15.3825 4.87237 15.7742 4.93584 16.1567C4.99931 16.5393 5.14251 16.9042 5.35608 17.2276C5.82653 17.9696 6.7531 18.3317 7.53886 18.0353C8.67298 17.6218 9.64765 16.8596 10.3239 15.8572C10.9898 14.8685 11.041 13.8372 10.386 12.8052C10.0004 12.1937 9.48577 11.947 8.78282 12.0573C8.46751 12.0906 8.15711 12.1459 7.84487 12.1977Z" fill="#725641"/>
<path d="M28.8714 6.01117C29.2483 5.93131 29.6328 5.8926 30.0181 5.8957C31.1246 5.94912 31.7399 6.81025 31.8701 7.5871C31.95 8.1027 31.9833 8.62444 31.9695 9.14594C31.9628 9.72244 31.9899 9.76358 32.5635 9.84077C33.6584 10.0094 34.7426 10.2421 35.8104 10.5378C36.3816 10.6838 36.9433 10.8568 37.436 11.1996C38.0897 11.6526 38.3851 12.4363 38.159 13.091C38.0325 13.4465 37.7932 13.7504 37.4778 13.9561C37.1623 14.1618 36.7882 14.258 36.4129 14.2298C35.984 14.2004 35.5603 14.1188 35.1511 13.9867C34.1659 13.6521 33.1721 13.3417 32.1775 13.034C31.5998 12.856 31.4639 12.9508 31.3821 13.5689C31.2602 14.5363 31.0515 15.4905 30.7587 16.42C30.6032 16.9492 30.2477 17.3961 29.7679 17.6655C29.5816 17.7749 29.3725 17.8397 29.157 17.8546C28.9415 17.8696 28.7255 17.8343 28.5257 17.7516C28.326 17.6689 28.148 17.541 28.0056 17.3779C27.8632 17.2147 27.7603 17.0208 27.705 16.8113C27.5715 16.3752 27.5382 15.9144 27.6077 15.4638C27.8369 14.1246 28.06 12.7843 28.277 11.4429C28.3494 10.9962 28.405 10.5472 28.4619 10.0979C28.5187 9.64874 28.3979 9.52938 27.9805 9.64804C27.3921 9.81664 26.7944 9.93734 26.1968 10.058C25.8426 10.1339 25.4829 10.1809 25.1212 10.1985C24.5024 10.2225 23.9 9.81173 23.736 9.29524C23.6511 9.01097 23.6571 8.70727 23.753 8.42677C23.849 8.14626 24.0301 7.90305 24.271 7.73125C24.673 7.44196 25.1133 7.21025 25.5791 7.04278C26.1733 6.81746 26.7674 6.59215 27.3673 6.40137C27.8841 6.24214 28.3973 6.05434 28.8714 6.01117Z" fill="#725641"/>
<path d="M45.0018 8.99004C45.1862 10.1708 45.2994 11.3616 45.3408 12.556C45.3535 12.9194 45.2961 13.2818 45.1718 13.6232C44.7255 14.8088 43.4608 15.1035 42.5511 14.2266C42.2745 13.9555 42.081 13.6107 41.9934 13.233C41.8134 12.4824 41.7074 11.7159 41.6769 10.9446C41.6435 10.3089 41.5483 9.68212 41.4976 9.04924C41.4314 8.23137 41.2942 8.18062 40.5082 8.41494C39.2074 8.80438 37.9037 9.18416 36.5273 9.18691C36.0957 9.18882 35.6665 9.17511 35.2588 9.01715C34.4142 8.68455 34.256 7.67789 34.9521 7.09981C35.2373 6.86239 35.5799 6.74218 35.9194 6.61869C37.3649 6.09625 38.8147 5.58451 40.2628 5.07051C40.7529 4.89541 40.7546 4.89767 40.7057 4.40516C40.6722 4.066 40.6312 3.72807 40.6004 3.38973C40.5769 3.20993 40.5692 3.02843 40.5773 2.84732C40.6291 2.17716 40.9849 1.68723 41.4995 1.55369C42.0878 1.39907 42.5927 1.6258 42.9868 2.23466C43.3468 2.79087 43.5774 3.40405 43.7971 4.0279C44.2939 5.41564 44.6763 6.83755 45.0018 8.99004Z" fill="#725641"/>
<path d="M18.316 20.6021C18.1148 18.6204 17.8243 16.6408 17.6593 14.6492C17.5083 12.7491 17.3185 10.8517 17.3089 8.94334C17.3039 8.08362 17.2879 7.21813 17.5794 6.38653C17.9011 5.47009 18.7807 5.0466 19.6415 5.393C20.1911 5.61485 20.4248 6.07923 20.5062 6.60815C20.5989 7.21252 20.6287 7.82606 20.662 8.43775C20.7953 10.8857 21.0929 13.3192 21.3417 15.7556C21.4891 17.2 21.6689 18.6416 21.8203 20.0866C21.8796 20.6497 21.9184 21.2186 21.7417 21.7751C21.5094 22.5069 20.9795 22.9979 20.296 23.02C19.5724 23.0437 19.0527 22.6902 18.7291 22.0341C18.5176 21.5813 18.3782 21.0981 18.316 20.6021Z" fill="#725641"/>
<path d="M42.198 24.2264C41.3747 24.4112 40.5975 24.165 39.9125 23.6905C38.3676 22.6316 37.2054 21.0997 36.5999 19.324C36.4724 18.9335 36.4442 18.5173 36.5178 18.1133C36.6737 17.0964 37.8221 16.5649 38.7182 17.0702C39.092 17.2902 39.387 17.6233 39.5606 18.0217C39.9616 18.8379 40.488 19.5858 41.1207 20.238C41.6514 20.7951 41.7577 20.8268 42.4837 20.5125C43.5633 20.0457 44.6285 19.5458 45.6673 18.9932C46.0448 18.7857 46.4552 18.6451 46.8805 18.5778C47.5998 18.4749 48.2345 18.7448 48.5771 19.3102C48.9197 19.8756 48.8571 20.5793 48.4382 21.1608C48.2271 21.4579 47.948 21.6998 47.6243 21.8661C46.1112 22.6431 44.5964 23.4103 43.0183 24.0244C42.7547 24.1268 42.479 24.1947 42.198 24.2264Z" fill="#725641"/>
</svg>
