<svg width="92" height="92" viewBox="0 0 92 92" fill="none" xmlns="http://www.w3.org/2000/svg">
<path d="M45.9063 0C36.8269 0 27.9514 2.69235 20.4021 7.7366C12.8529 12.7808 6.96896 19.9504 3.49443 28.3387C0.0198905 36.727 -0.889206 45.9572 0.882096 54.8621C2.6534 63.7671 7.02555 71.9468 13.4457 78.3669C19.8658 84.787 28.0455 89.1591 36.9504 90.9304C45.8553 92.7017 55.0856 91.7926 63.4738 88.3181C71.8621 84.8436 79.0317 78.9596 84.0759 71.4104C89.1202 63.8611 91.8125 54.9856 91.8125 45.9062C91.7892 33.7383 86.9452 22.0754 78.3411 13.4714C69.7371 4.86736 58.0742 0.0233326 45.9063 0ZM63.5625 49.4375H49.4375V63.5625C49.4375 64.499 49.0655 65.3972 48.4032 66.0595C47.741 66.7217 46.8428 67.0938 45.9063 67.0938C44.9697 67.0938 44.0715 66.7217 43.4093 66.0595C42.7471 65.3972 42.375 64.499 42.375 63.5625V49.4375H28.25C27.3135 49.4375 26.4153 49.0655 25.753 48.4032C25.0908 47.741 24.7188 46.8428 24.7188 45.9062C24.7188 44.9697 25.0908 44.0715 25.753 43.4093C26.4153 42.747 27.3135 42.375 28.25 42.375H42.375V28.25C42.375 27.3135 42.7471 26.4153 43.4093 25.753C44.0715 25.0908 44.9697 24.7188 45.9063 24.7188C46.8428 24.7188 47.741 25.0908 48.4032 25.753C49.0655 26.4153 49.4375 27.3135 49.4375 28.25V42.375H63.5625C64.4991 42.375 65.3973 42.747 66.0595 43.4093C66.7217 44.0715 67.0938 44.9697 67.0938 45.9062C67.0938 46.8428 66.7217 47.741 66.0595 48.4032C65.3973 49.0655 64.4991 49.4375 63.5625 49.4375Z" fill="white" fill-opacity="0.6"/>
</svg>
