<svg width="32" height="32" viewBox="0 0 32 32" fill="none" xmlns="http://www.w3.org/2000/svg">
<path d="M27 10H5C4.44772 10 4 10.4477 4 11V15C4 15.5523 4.44772 16 5 16H27C27.5523 16 28 15.5523 28 15V11C28 10.4477 27.5523 10 27 10Z" stroke="#53ACFF" stroke-width="2" stroke-linecap="round" stroke-linejoin="round"/>
<path d="M26 16V25C26 25.2652 25.8946 25.5196 25.7071 25.7071C25.5196 25.8946 25.2652 26 25 26H7C6.73478 26 6.48043 25.8946 6.29289 25.7071C6.10536 25.5196 6 25.2652 6 25V16" stroke="#53ACFF" stroke-width="2" stroke-linecap="round" stroke-linejoin="round"/>
<path d="M16 10V26" stroke="#53ACFF" stroke-width="2" stroke-linecap="round" stroke-linejoin="round"/>
<path d="M21.6625 8.58723C20.2375 9.99973 16 9.99973 16 9.99973C16 9.99973 16 5.76224 17.4125 4.33724C17.9761 3.77365 18.7405 3.45703 19.5375 3.45703C20.3345 3.45703 21.0989 3.77365 21.6625 4.33724C22.2261 4.90082 22.5427 5.66521 22.5427 6.46224C22.5427 7.25926 22.2261 8.02365 21.6625 8.58723V8.58723Z" stroke="#53ACFF" stroke-width="2" stroke-linecap="round" stroke-linejoin="round"/>
<path d="M10.3372 8.58723C11.7622 9.99973 15.9997 9.99973 15.9997 9.99973C15.9997 9.99973 15.9997 5.76224 14.5872 4.33724C14.0236 3.77365 13.2593 3.45703 12.4622 3.45703C11.6652 3.45703 10.9008 3.77365 10.3372 4.33724C9.77365 4.90082 9.45703 5.66521 9.45703 6.46224C9.45703 7.25926 9.77365 8.02365 10.3372 8.58723V8.58723Z" stroke="#53ACFF" stroke-width="2" stroke-linecap="round" stroke-linejoin="round"/>
<path opacity="0.2" d="M26 16V25C26 25.2652 25.8946 25.5196 25.7071 25.7071C25.5196 25.8946 25.2652 26 25 26H7C6.73478 26 6.48043 25.8946 6.29289 25.7071C6.10536 25.5196 6 25.2652 6 25V16H26Z" fill="#008BFF"/>
</svg>
